<svg xmlns="http://www.w3.org/2000/svg" width="116.32" height="151.218" viewBox="0 0 116.32 151.218">
  <g id="タブレットのアイコン素材4" transform="translate(-104.771 4)">
    <path id="Path_1600" data-name="Path 1600" d="M165.509,0H68.968a9.894,9.894,0,0,0-9.89,9.894V141.324a9.894,9.894,0,0,0,9.889,9.894h96.542a9.891,9.891,0,0,0,9.889-9.894V9.894A9.89,9.89,0,0,0,165.509,0ZM118.4,145.011a4.266,4.266,0,1,1,4.264-4.269A4.264,4.264,0,0,1,118.4,145.011Zm45.363-14.73H70.712V11.629h93.053V130.28Z" transform="translate(45.693 -4)" fill="#fff"/>
  </g>
</svg>
