<svg xmlns="http://www.w3.org/2000/svg" width="149.206" height="151.218" viewBox="0 0 149.206 151.218">
  <g id="スマホアイコン" transform="translate(-3.405 0)">
    <path id="Path_1601" data-name="Path 1601" d="M166.589,73.685c.081-3.044-1.894-5.7-3.78-8.134-.261,3.056-2.944,8.105-4.221,10.715l-48.162,98.477c-3.737,7.635-8.4,17.032-18.654,15.938-.392-.024-68.525-7.18-68.525-7.18,1.932,3.044,4.1,6.961,7.916,7.369l56.12,5.914c6.5.7,12.673,1.61,18.523-2.243,6.484-4.262,9.843-12.006,13.082-18.623L164.542,79.8a15.381,15.381,0,0,0,2.046-6.114C166.6,73.474,166.589,73.654,166.589,73.685Z" transform="translate(-13.982 -46.191)" fill="#fff"/>
    <path id="Path_1602" data-name="Path 1602" d="M72.992,137.331c5.672.608,12.526-3.407,15.214-8.905l15.65-31.989,38.376-78.475c2.7-5.513.256-10.515-5.413-11.125L73.747.06c-5.684-.608-12.521,3.4-15.216,8.91L4.5,119.435c-2.69,5.5-.268,10.51,5.418,11.12ZM49.721,121.408a7.472,7.472,0,0,1-6.871,4.017c-2.564-.276-3.647-2.524-2.429-5.019a7.44,7.44,0,0,1,6.845-4.012C49.825,116.667,50.936,118.922,49.721,121.408ZM67.28,14.3l62.155,6.676L86.169,109.414l-62.155-6.676Z" transform="translate(0 0)" fill="#fff"/>
  </g>
</svg>
